<svg aria-hidden="true" style="position:absolute;width:0;height:0;overflow:hidden" xmlns="http://www.w3.org/2000/svg"><defs><symbol id="Client-4" viewBox="0 0 57 32"><path  d="M12.878 11.255h-.002c-1.279 0-2.316.921-2.316 2.058v.002c0 1.137 1.037 2.058 2.316 2.058h.002c1.279 0 2.316-.922 2.316-2.058v-.001c0-1.137-1.037-2.059-2.316-2.059zm17.093-.658c-.004-1.579-.711-3.092-1.967-4.209s-2.958-1.745-4.734-1.749c-1.777.003-3.481.631-4.737 1.748s-1.964 2.63-1.968 4.209v8.706s13.405-1.327 13.406-8.704v-.002zM5.867 22.16c.003 1.099.496 2.151 1.37 2.928s2.058 1.214 3.294 1.218c1.236-.003 2.42-.441 3.294-1.218s1.366-1.829 1.37-2.927v-6.058s-9.327.924-9.327 6.057zm4.663 1.085c-.242 0-.477-.063-.678-.183a1.136 1.136 0 0 1-.447-.48l-.003-.007a.951.951 0 0 1-.068-.634l-.001.007c.047-.211.163-.404.334-.556s.388-.255.625-.297a1.363 1.363 0 0 1 .715.064l-.009-.003c.223.082.414.221.548.4s.206.388.206.603a.963.963 0 0 1-.092.417 1.095 1.095 0 0 1-.263.352l-.001.001a1.323 1.323 0 0 1-.864.319h-.001v-.004zm9.426-.598h-.9v.93h-.469v-2.276h1.482v.38h-1.013v.588h.9v.378zm2.253-.156c0 .224-.039.42-.118.589a.893.893 0 0 1-.83.529h-.018.001a.943.943 0 0 1-.505-.136.917.917 0 0 1-.341-.382l-.002-.006a1.319 1.319 0 0 1-.123-.561v-.021.001-.112c0-.224.04-.421.12-.591a.895.895 0 0 1 .342-.392c.148-.092.316-.138.506-.138s.357.046.505.138a.888.888 0 0 1 .342.392c.081.17.122.366.122.589v.101zm-.475-.103c0-.238-.043-.42-.128-.544a.417.417 0 0 0-.348-.186h-.019.001-.018a.419.419 0 0 0-.346.183l-.001.001c-.085.122-.129.301-.13.538v.111c0 .232.043.412.128.54s.208.192.369.192h.018a.413.413 0 0 0 .343-.183l.001-.001c.084-.124.127-.304.128-.541v-.111zm1.995.592v-.013a.24.24 0 0 0-.093-.189h-.001a1.185 1.185 0 0 0-.338-.15c-.15-.047-.278-.1-.399-.163l.014.006c-.259-.14-.388-.328-.388-.564 0-.123.034-.233.103-.328a.691.691 0 0 1 .299-.227 1.13 1.13 0 0 1 .437-.081c.163 0 .307.029.435.089a.677.677 0 0 1 .295.249.646.646 0 0 1 .107.365h-.469c0-.104-.032-.185-.098-.242a.4.4 0 0 0-.276-.087.426.426 0 0 0-.267.074.228.228 0 0 0-.096.185v.006c0 .074.037.136.111.186.075.05.185.097.33.14.267.08.461.18.583.299s.183.267.183.444c0 .197-.075.352-.224.464s-.349.167-.601.167c-.175 0-.334-.032-.478-.096a.77.77 0 0 1-.328-.261l-.002-.002a.672.672 0 0 1-.112-.373v-.015.001h.47c0 .251.15.377.45.377a.442.442 0 0 0 .261-.067.223.223 0 0 0 .093-.182v-.009zm2.502-1.298h-.697v1.895h-.469v-1.895h-.686v-.38h1.853v.38zm1.637.909h-.9v.61h1.056v.377h-1.525v-2.276h1.522v.38h-1.053v.542h.9v.367zm1.274.153h-.373v.833H28.3v-2.276h.845c.269 0 .476.06.622.18s.219.289.219.508a.705.705 0 0 1-.101.389.69.69 0 0 1-.3.245l-.005.002.492.93v.021h-.503l-.427-.832zm-.373-.38h.379a.387.387 0 0 0 .273-.089.323.323 0 0 0 .097-.231v-.018.001c0-.108-.03-.192-.092-.253s-.154-.092-.28-.092h-.377v.683zm2.84.411v.802h-.469v-2.276h.887c.171 0 .321.031.45.094.13.062.23.151.3.267a.746.746 0 0 1 .105.392.657.657 0 0 1-.229.528c-.153.128-.363.193-.633.193h-.411zm0-.379h.419c.124 0 .219-.029.283-.087a.317.317 0 0 0 .099-.25v-.017a.372.372 0 0 0-.099-.254.37.37 0 0 0-.272-.106h-.43v.715zm2.965.195h-.9v.61h1.056v.377h-1.525v-2.276h1.522v.38h-1.053v.542h.9v.367zm2.176-.909h-.697v1.895h-.469v-1.895h-.687v-.38h1.853v.38zm1.637.909h-.899v.61h1.056v.377h-1.525v-2.276h1.522v.38h-1.053v.542h.9v.367zm1.274.153h-.373v.833h-.469v-2.276h.846c.269 0 .476.06.622.18s.219.289.219.508a.705.705 0 0 1-.101.389.687.687 0 0 1-.301.245l-.005.002.492.93v.021h-.503l-.427-.832zm-.374-.38h.378c.117 0 .209-.029.273-.089a.324.324 0 0 0 .097-.232v-.018.001a.338.338 0 0 0-.092-.253c-.06-.061-.154-.092-.279-.092h-.377v.683zm2.755.616v-.013a.237.237 0 0 0-.094-.189h-.001a1.185 1.185 0 0 0-.338-.15c-.15-.047-.278-.1-.399-.163l.014.006c-.259-.14-.388-.328-.388-.564 0-.123.035-.233.103-.328a.691.691 0 0 1 .299-.227 1.13 1.13 0 0 1 .437-.081c.163 0 .307.029.435.089a.677.677 0 0 1 .295.249.646.646 0 0 1 .107.365h-.469c0-.104-.032-.185-.098-.242a.4.4 0 0 0-.276-.087.426.426 0 0 0-.267.074.229.229 0 0 0-.096.186v.005c0 .074.037.136.111.186s.185.097.33.14c.267.08.461.18.583.299s.183.267.183.444c0 .197-.075.352-.224.464s-.349.167-.601.167c-.175 0-.334-.032-.478-.096a.77.77 0 0 1-.328-.261l-.002-.002a.672.672 0 0 1-.112-.373v-.015.001h.47c0 .251.15.377.45.377a.442.442 0 0 0 .261-.067.224.224 0 0 0 .094-.182v-.009z"/></symbol><symbol id="Client-5" viewBox="0 0 57 32"><path  d="M14.27 23.859a.768.768 0 0 1 .197.56.756.756 0 0 1-.073.326l.002-.005a.83.83 0 0 1-.232.296l-.002.001a1.39 1.39 0 0 1-.885.24h.004-1.549v-3.301h1.517a1.377 1.377 0 0 1 .846.222l-.005-.003a.782.782 0 0 1 .227.277.71.71 0 0 1 .068.341.722.722 0 0 1-.176.505.842.842 0 0 1-.462.258.893.893 0 0 1 .523.283zm-1.816-.498h.649a.655.655 0 0 0 .412-.11.386.386 0 0 0 .109-.144l.001-.003a.358.358 0 0 0 .03-.145l-.001-.033v.001l.001-.028a.376.376 0 0 0-.031-.15l.001.002a.399.399 0 0 0-.108-.147h-.001a.665.665 0 0 0-.373-.113l-.054.002h.002-.638v.867zm1.124 1.266a.407.407 0 0 0 .118-.149l.001-.003a.37.37 0 0 0 .034-.158l-.001-.027v.001l.001-.024a.38.38 0 0 0-.037-.165l.001.002a.41.41 0 0 0-.121-.151l-.001-.001a.705.705 0 0 0-.397-.121l-.045.001h.002-.68v.908h.689a.727.727 0 0 0 .435-.115zm3.793.651-.843-1.291h-.317v1.291h-.726v-3.302h1.374a1.433 1.433 0 0 1 .96.284l-.004-.003a1.016 1.016 0 0 1 .329.735.99.99 0 0 1-.228.633l.001-.002a1.152 1.152 0 0 1-.649.335l-.006.001.899 1.319h-.789zm-1.161-1.74h.594c.412 0 .619-.166.619-.5l.001-.027a.464.464 0 0 0-.035-.176l.001.003a.494.494 0 0 0-.118-.171.68.68 0 0 0-.47-.133h.003-.601l.007 1.005zm5.129 1.075h-1.446l-.255.665h-.761l1.328-3.265h.823l1.323 3.265h-.761l-.25-.665zm-.194-.499-.529-1.394-.529 1.394h1.057zm5.16 1.164h-.72l-1.616-2.245v2.245h-.719v-3.302h.719l1.616 2.259v-2.259h.72v3.302zm4.113-.79a1.501 1.501 0 0 1-.652.582c-.28.132-.608.209-.955.209l-.062-.001h.003-1.282v-3.302h1.283l.06-.001c.345 0 .673.075.968.209l-.015-.006c.276.128.503.329.652.576a1.78 1.78 0 0 1 0 1.733zm-.825-.079c.196-.205.317-.482.318-.788 0-.289-.113-.569-.318-.788a1.317 1.317 0 0 0-.906-.281h.004-.5v2.138h.5a1.323 1.323 0 0 0 .905-.282l-.003.002zm-7.803-20.8s9.3 3.215 9.103 7.867v7.869s-9.294-3.216-9.1-7.869l-.003-7.867zm17.389 13.894a13.494 13.494 0 0 1 5.909-1.994v-2.464c-2.444.863-4.517 2.427-5.909 4.458z"/><path  d="M38.124 18.245c1.437-2.651 3.93-4.696 6.964-5.716V5.431s-13.245 4.58-12.965 11.205v11.203s.59-.205 1.519-.589c0-.358 0-.719.043-1.083.274-3.075 1.87-5.925 4.439-7.924z"/><path  d="M36.864 22.407c.069-.777.225-1.546.463-2.294-1.599 1.725-2.568 3.867-2.769 6.122-.02.213-.03.426-.036.645a36.805 36.805 0 0 0 2.761-1.334l-.214.105a10.624 10.624 0 0 1-.206-3.244zm.527.04a10.167 10.167 0 0 0 .175 3.003l-.012-.066c3.619-1.983 7.685-5.046 7.528-8.748v-.323c-2.586.265-5.004 1.3-6.885 2.946a10.02 10.02 0 0 0-.804 3.148l-.003.04z"/></symbol><symbol id="Client-6" viewBox="0 0 57 32"><path  d="M28.493 14.618a1.563 1.563 0 0 1-.322-1.065v.005-1.538c0-.471.107-.829.321-1.075.213-.245.581-.367 1.101-.366.489 0 .837.105 1.042.313.224.266.333.591.308.919v.362h-.875v-.366a1.799 1.799 0 0 0-.026-.358.34.34 0 0 0-.125-.212l-.001-.001a.499.499 0 0 0-.279-.084l-.039.001h.002l-.038-.001a.53.53 0 0 0-.297.09l.002-.001a.415.415 0 0 0-.145.232v.003a1.74 1.74 0 0 0-.035.351v.031-.002 1.866c-.014.18.025.36.112.524.045.056.104.1.172.126l.003.001a.48.48 0 0 0 .228.029H29.6a.47.47 0 0 0 .311-.086l-.002.001a.37.37 0 0 0 .13-.224v-.002c.02-.124.03-.249.027-.374v-.379h.875v.346a1.397 1.397 0 0 1-.305.969l.002-.003c-.201.228-.544.342-1.047.342s-.884-.122-1.1-.375zm3.644.016c-.221-.24-.332-.588-.332-1.05v-1.618c0-.457.11-.803.332-1.037s.59-.351 1.109-.35c.515 0 .882.117 1.103.35.221.235.333.58.333 1.037v1.617c0 .457-.112.807-.337 1.049s-.59.361-1.1.361-.886-.122-1.109-.359zm1.516-.389a.902.902 0 0 0 .105-.478v-1.981a.872.872 0 0 0-.105-.474l.002.005a.425.425 0 0 0-.176-.128l-.003-.001a.473.473 0 0 0-.233-.027h.002a.49.49 0 0 0-.235.028l.003-.001a.416.416 0 0 0-.179.128l-.001.001a.855.855 0 0 0-.105.469v1.99a.888.888 0 0 0 .105.479.605.605 0 0 0 .639.116l-.004.001a.563.563 0 0 0 .185-.118v-.01zm2.082-3.619h.942l.708 2.984.725-2.984h.916l.093 4.307h-.678l-.073-2.994-.699 2.994h-.544l-.724-3.005-.067 3.005h-.685l.085-4.307zm4.441 0h1.468c.845 0 1.268.407 1.268 1.223 0 .781-.445 1.171-1.335 1.17h-.5v1.914h-.906l.005-4.308zm1.254 1.841a.707.707 0 0 0 .498-.136.699.699 0 0 0 .131-.486 1.325 1.325 0 0 0-.046-.4l.002.009a.317.317 0 0 0-.067-.119.386.386 0 0 0-.112-.085l-.002-.001a.913.913 0 0 0-.357-.071l-.05.001h.002-.351v1.287h.352zm2.789-1.841h.973l.998 4.307h-.845l-.197-.993h-.868l-.203.993h-.857l.998-4.307zm.831 2.816-.339-1.808-.339 1.808h.677zm1.946-2.816h.635l1.213 2.457v-2.457h.752v4.307h-.603l-1.221-2.565v2.565h-.777l.002-4.307zm4.361 2.665-1.009-2.659h.85l.616 1.708.578-1.708h.832l-.997 2.659v1.642h-.869V13.29zm-21.465 3.526v.225h-.739v1.75h-.31v-1.75H28.1v-.225h1.792zm2.318 1.976h-.246a.105.105 0 0 1-.061-.019.1.1 0 0 1-.039-.045v-.001l-.214-.469h-1.026l-.213.469a.126.126 0 0 1-.033.053.108.108 0 0 1-.062.019h-.245l.906-1.975h.315l.917 1.968zm-1.501-.734h.855l-.363-.804a1.278 1.278 0 0 1-.064-.176l-.003-.01-.034.105-.033.083-.358.803zm3.062.539a1.018 1.018 0 0 0 .316-.023 1.018 1.018 0 0 0 .252-.085v-.444h-.365a.076.076 0 0 1-.046-.016c-.006-.004-.01-.01-.014-.016a.034.034 0 0 1-.004-.018v-.153h.703v.757c-.11.068-.237.123-.372.158l-.01.002c-.075.019-.15.033-.227.041a2.598 2.598 0 0 1-.265.012h-.011c-.159 0-.312-.027-.455-.077l.01.003a1.123 1.123 0 0 1-.364-.208l.002.001a.952.952 0 0 1-.231-.307l-.002-.006a.965.965 0 0 1-.083-.397v-.013.001-.012c0-.145.03-.283.084-.407l-.003.007a.907.907 0 0 1 .234-.313c.103-.089.227-.158.363-.205.155-.051.32-.076.485-.074.084 0 .169.005.252.017.074.011.146.027.215.05.064.02.124.047.181.078.055.031.108.065.158.103l-.087.122a.073.073 0 0 1-.029.026.093.093 0 0 1-.042.011.111.111 0 0 1-.057-.016h.001a.892.892 0 0 1-.094-.05l.005.003a.814.814 0 0 0-.115-.052l-.006-.002a1.027 1.027 0 0 0-.16-.043l-.007-.001a1.34 1.34 0 0 0-.218-.017h-.013.001-.011c-.121 0-.238.02-.346.057l.008-.002a.774.774 0 0 0-.267.156.672.672 0 0 0-.166.241l-.002.005a.917.917 0 0 0 .002.665l-.002-.006a.76.76 0 0 0 .445.405c.115.034.237.047.359.039zm2.888-.031h.989v.225h-1.291v-1.975h.309l-.007 1.75zm2.018.226h-.309v-1.975h.309v1.975zm1.153-1.966a.14.14 0 0 1 .047.036l1.324 1.489-.001-.035.001-.037v.002-1.472h.27v1.984h-.166a.14.14 0 0 1-.058-.012h.001a.162.162 0 0 1-.048-.037l-1.323-1.488v1.536h-.259v-1.975h.161c.018 0 .035.003.051.009zm3.923-.01v.217h-1.098v.652h.89v.21h-.89v.674h1.098v.218h-1.417v-1.971h1.417zm-32.467-12.2 13.757 3.372v11.818l-13.757-3.371V4.616zm-.882-1.008V17.01l15.52 3.806V7.417L10.404 3.61z"/><path  d="M18.722 27.036 3.2 23.227V9.828l15.522 3.807v13.401z"/><path  d="m10.661 4.465 13.578 3.33-5.774 4.987L4.886 9.45l5.776-4.986zm-.257-.856L3.2 9.828l15.522 3.808 7.202-6.22-15.52-3.807zm9.191 22.673 6.329-5.466-6.33-1.552v7.019z"/></symbol></defs></svg>